<svg xmlns="http://www.w3.org/2000/svg" xmlns:xlink="http://www.w3.org/1999/xlink" width="500" zoomAndPan="magnify" viewBox="0 0 375 374.999991" height="500" preserveAspectRatio="xMidYMid meet" version="1.0"><defs><g/></defs><rect x="-37.5" width="450" fill="#ffffff" y="-37.499999" height="449.999989" fill-opacity="1"/><rect x="-37.5" width="450" fill="#ffffff" y="-37.499999" height="449.999989" fill-opacity="1"/><rect x="-37.5" width="450" fill="#070417" y="-37.499999" height="449.999989" fill-opacity="1"/><g fill="#faf9fb" fill-opacity="1"><g transform="translate(18.800061, 193.475817)"><g><path d="M 1.484375 -1.078125 L 5.0625 -2.140625 L 5.0625 -37.296875 L 2.6875 -40.625 L 2.6875 -41.703125 L 8.15625 -41.703125 L 32.828125 -7.09375 L 32.828125 -39.5 L 28.59375 -40.625 L 28.59375 -41.703125 L 37.828125 -41.703125 L 37.828125 -40.625 L 34.25 -39.5625 L 34.25 0 L 31.640625 0 L 6.5 -35.265625 L 6.5 -2.203125 L 10.71875 -1.078125 L 10.71875 0 L 1.484375 0 Z M 1.484375 -1.078125 "/></g></g></g><g fill="#faf9fb" fill-opacity="1"><g transform="translate(56.334036, 193.475817)"><g><path d="M 31.640625 -41.703125 L 31.640625 -32.171875 L 30.203125 -32.171875 L 28.78125 -35.8125 C 28.414062 -36.71875 28.035156 -37.457031 27.640625 -38.03125 C 27.242188 -38.613281 26.757812 -39.0625 26.1875 -39.375 C 25.613281 -39.695312 24.925781 -39.925781 24.125 -40.0625 C 23.332031 -40.207031 22.359375 -40.28125 21.203125 -40.28125 L 10.125 -40.28125 L 10.125 -21.5625 L 26.28125 -21.5625 L 27.40625 -26.328125 L 28.484375 -26.328125 L 28.484375 -15.375 L 27.40625 -15.375 L 26.28125 -20.140625 L 10.125 -20.140625 L 10.125 -1.4375 L 19.953125 -1.4375 C 21.109375 -1.4375 22.125 -1.492188 23 -1.609375 C 23.875 -1.722656 24.664062 -1.9375 25.375 -2.25 C 26.09375 -2.570312 26.738281 -3.03125 27.3125 -3.625 C 27.894531 -4.226562 28.441406 -5.023438 28.953125 -6.015625 L 31.21875 -10.125 L 32.65625 -10.125 L 31.046875 0 L 1.484375 0 L 1.484375 -1.078125 L 5.0625 -1.84375 L 5.0625 -39.859375 L 1.484375 -40.625 L 1.484375 -41.703125 Z M 31.640625 -41.703125 "/></g></g></g><g fill="#faf9fb" fill-opacity="1"><g transform="translate(89.8167, 193.475817)"><g><path d="M 32.296875 -11.4375 C 32.296875 -9.25 31.894531 -7.390625 31.09375 -5.859375 C 30.300781 -4.335938 29.238281 -3.097656 27.90625 -2.140625 C 26.582031 -1.191406 25.046875 -0.5 23.296875 -0.0625 C 21.546875 0.375 19.71875 0.59375 17.8125 0.59375 C 15.03125 0.59375 12.335938 0.21875 9.734375 -0.53125 C 7.140625 -1.289062 4.890625 -2.242188 2.984375 -3.390625 L 5.890625 -9.65625 C 6.765625 -8.382812 7.675781 -7.210938 8.625 -6.140625 C 9.582031 -5.066406 10.609375 -4.128906 11.703125 -3.328125 C 12.796875 -2.535156 13.976562 -1.921875 15.25 -1.484375 C 16.519531 -1.046875 17.910156 -0.828125 19.421875 -0.828125 C 20.492188 -0.828125 21.578125 -0.957031 22.671875 -1.21875 C 23.765625 -1.476562 24.742188 -1.925781 25.609375 -2.5625 C 26.484375 -3.195312 27.1875 -4.03125 27.71875 -5.0625 C 28.257812 -6.09375 28.53125 -7.382812 28.53125 -8.9375 C 28.53125 -10.6875 28.179688 -12.113281 27.484375 -13.21875 C 26.796875 -14.332031 25.875 -15.253906 24.71875 -15.984375 C 23.570312 -16.722656 22.269531 -17.320312 20.8125 -17.78125 C 19.363281 -18.238281 17.875 -18.675781 16.34375 -19.09375 C 14.820312 -19.507812 13.335938 -19.984375 11.890625 -20.515625 C 10.441406 -21.054688 9.140625 -21.742188 7.984375 -22.578125 C 6.828125 -23.410156 5.898438 -24.484375 5.203125 -25.796875 C 4.515625 -27.109375 4.171875 -28.757812 4.171875 -30.75 C 4.171875 -32.726562 4.523438 -34.441406 5.234375 -35.890625 C 5.953125 -37.347656 6.945312 -38.550781 8.21875 -39.5 C 9.488281 -40.457031 10.976562 -41.160156 12.6875 -41.609375 C 14.394531 -42.066406 16.265625 -42.296875 18.296875 -42.296875 C 20.867188 -42.296875 23.25 -41.976562 25.4375 -41.34375 C 27.625 -40.707031 29.609375 -39.9375 31.390625 -39.03125 L 28.828125 -32.65625 C 28.117188 -33.6875 27.328125 -34.6875 26.453125 -35.65625 C 25.578125 -36.632812 24.613281 -37.507812 23.5625 -38.28125 C 22.507812 -39.050781 21.382812 -39.675781 20.1875 -40.15625 C 19 -40.632812 17.710938 -40.875 16.328125 -40.875 C 15.328125 -40.875 14.3125 -40.734375 13.28125 -40.453125 C 12.25 -40.171875 11.335938 -39.710938 10.546875 -39.078125 C 9.753906 -38.441406 9.097656 -37.632812 8.578125 -36.65625 C 8.066406 -35.6875 7.8125 -34.488281 7.8125 -33.0625 C 7.8125 -31.4375 8.15625 -30.097656 8.84375 -29.046875 C 9.539062 -27.992188 10.460938 -27.140625 11.609375 -26.484375 C 12.765625 -25.828125 14.078125 -25.289062 15.546875 -24.875 C 17.015625 -24.457031 18.515625 -24.039062 20.046875 -23.625 C 21.578125 -23.207031 23.078125 -22.726562 24.546875 -22.1875 C 26.015625 -21.65625 27.320312 -20.941406 28.46875 -20.046875 C 29.625 -19.148438 30.550781 -18.015625 31.25 -16.640625 C 31.945312 -15.273438 32.296875 -13.539062 32.296875 -11.4375 Z M 32.296875 -11.4375 "/></g></g></g><g fill="#faf9fb" fill-opacity="1"><g transform="translate(123.775987, 193.475817)"><g><path d="M 1.90625 -41.703125 L 35.03125 -41.703125 L 35.75 -32.171875 L 34.3125 -32.171875 L 32.953125 -34.96875 C 32.546875 -35.800781 32.132812 -36.554688 31.71875 -37.234375 C 31.300781 -37.910156 30.820312 -38.46875 30.28125 -38.90625 C 29.75 -39.34375 29.125 -39.679688 28.40625 -39.921875 C 27.695312 -40.160156 26.828125 -40.28125 25.796875 -40.28125 L 20.96875 -40.28125 L 20.96875 -1.90625 L 25.140625 -1.078125 L 25.140625 0 L 11.734375 0 L 11.734375 -1.078125 L 15.90625 -1.90625 L 15.90625 -40.28125 L 11.140625 -40.28125 C 10.109375 -40.28125 9.234375 -40.160156 8.515625 -39.921875 C 7.804688 -39.679688 7.179688 -39.34375 6.640625 -38.90625 C 6.109375 -38.46875 5.640625 -37.910156 5.234375 -37.234375 C 4.835938 -36.554688 4.421875 -35.800781 3.984375 -34.96875 L 2.625 -32.171875 L 1.1875 -32.171875 Z M 1.90625 -41.703125 "/></g></g></g><g fill="#faf9fb" fill-opacity="1"><g transform="translate(158.926845, 193.475817)"><g><path d="M 21.453125 0.59375 C 18.828125 0.59375 16.421875 0.1875 14.234375 -0.625 C 12.054688 -1.4375 10.179688 -2.707031 8.609375 -4.4375 C 7.035156 -6.164062 5.800781 -8.390625 4.90625 -11.109375 C 4.019531 -13.828125 3.578125 -17.078125 3.578125 -20.859375 C 3.578125 -24.628906 4.019531 -27.875 4.90625 -30.59375 C 5.800781 -33.3125 7.035156 -35.535156 8.609375 -37.265625 C 10.179688 -38.992188 12.054688 -40.265625 14.234375 -41.078125 C 16.421875 -41.890625 18.828125 -42.296875 21.453125 -42.296875 C 24.035156 -42.296875 26.425781 -41.890625 28.625 -41.078125 C 30.832031 -40.265625 32.726562 -38.992188 34.3125 -37.265625 C 35.90625 -35.535156 37.144531 -33.3125 38.03125 -30.59375 C 38.925781 -27.875 39.375 -24.628906 39.375 -20.859375 C 39.375 -17.078125 38.925781 -13.828125 38.03125 -11.109375 C 37.144531 -8.390625 35.90625 -6.164062 34.3125 -4.4375 C 32.726562 -2.707031 30.832031 -1.4375 28.625 -0.625 C 26.425781 0.1875 24.035156 0.59375 21.453125 0.59375 Z M 21.453125 -0.71875 C 23.273438 -0.71875 24.953125 -1.101562 26.484375 -1.875 C 28.015625 -2.644531 29.332031 -3.84375 30.4375 -5.46875 C 31.550781 -7.101562 32.425781 -9.191406 33.0625 -11.734375 C 33.695312 -14.273438 34.015625 -17.296875 34.015625 -20.796875 C 34.015625 -24.328125 33.695312 -27.375 33.0625 -29.9375 C 32.425781 -32.5 31.539062 -34.59375 30.40625 -36.21875 C 29.28125 -37.851562 27.953125 -39.054688 26.421875 -39.828125 C 24.890625 -40.597656 23.234375 -40.984375 21.453125 -40.984375 C 19.660156 -40.984375 18 -40.597656 16.46875 -39.828125 C 14.9375 -39.054688 13.613281 -37.851562 12.5 -36.21875 C 11.394531 -34.59375 10.523438 -32.5 9.890625 -29.9375 C 9.253906 -27.375 8.9375 -24.328125 8.9375 -20.796875 C 8.9375 -17.222656 9.253906 -14.164062 9.890625 -11.625 C 10.523438 -9.082031 11.40625 -7.003906 12.53125 -5.390625 C 13.664062 -3.785156 14.988281 -2.601562 16.5 -1.84375 C 18.007812 -1.09375 19.660156 -0.71875 21.453125 -0.71875 Z M 21.453125 -0.71875 "/></g></g></g><g fill="#faf9fb" fill-opacity="1"><g transform="translate(200.095085, 193.475817)"><g><path d="M 1.484375 -1.078125 L 5.0625 -1.84375 L 5.0625 -39.859375 L 1.484375 -40.625 L 1.484375 -41.703125 L 18.234375 -41.703125 C 22.640625 -41.703125 26.132812 -40.75 28.71875 -38.84375 C 31.300781 -36.9375 32.59375 -34.054688 32.59375 -30.203125 C 32.59375 -26.628906 31.457031 -23.976562 29.1875 -22.25 C 26.925781 -20.519531 23.832031 -19.554688 19.90625 -19.359375 L 32.65625 -1.671875 L 35.515625 -1.078125 L 35.515625 0 L 23.296875 0 L 23.296875 -1.078125 L 25.921875 -1.609375 L 17.9375 -19.296875 L 10.125 -19.296875 L 10.125 -1.84375 L 13.703125 -1.078125 L 13.703125 0 L 1.484375 0 Z M 18.109375 -20.734375 C 21.085938 -20.734375 23.351562 -21.546875 24.90625 -23.171875 C 26.457031 -24.804688 27.234375 -27.171875 27.234375 -30.265625 C 27.234375 -33.359375 26.457031 -35.800781 24.90625 -37.59375 C 23.351562 -39.382812 21.085938 -40.28125 18.109375 -40.28125 L 10.125 -40.28125 L 10.125 -20.734375 Z M 18.109375 -20.734375 "/></g></g></g><g fill="#faf9fb" fill-opacity="1"><g transform="translate(234.173528, 193.475817)"><g><path d="M 0.359375 -41.703125 L 12.578125 -41.703125 L 12.578125 -40.625 L 9.0625 -39.859375 L 22.109375 -5.484375 L 34.96875 -39.5 L 30.796875 -40.625 L 30.796875 -41.703125 L 40.03125 -41.703125 L 40.03125 -40.625 L 36.46875 -39.5625 L 21.453125 0 L 18.828125 0 L 3.640625 -39.921875 L 0.359375 -40.625 Z M 0.359375 -41.703125 "/></g></g></g><g fill="#faf9fb" fill-opacity="1"><g transform="translate(272.42245, 193.475817)"><g><path d="M 1.484375 -41.703125 L 14.890625 -41.703125 L 14.890625 -40.625 L 10.71875 -39.796875 L 10.71875 -1.90625 L 14.890625 -1.078125 L 14.890625 0 L 1.484375 0 L 1.484375 -1.078125 L 5.65625 -1.90625 L 5.65625 -39.796875 L 1.484375 -40.625 Z M 1.484375 -41.703125 "/></g></g></g><g fill="#faf9fb" fill-opacity="1"><g transform="translate(287.018839, 193.475817)"><g><path d="M 1.484375 -1.078125 L 5.0625 -1.84375 L 5.0625 -39.859375 L 1.484375 -40.625 L 1.484375 -41.703125 L 18.296875 -41.703125 C 22.773438 -41.703125 26.109375 -40.804688 28.296875 -39.015625 C 30.484375 -37.234375 31.578125 -34.734375 31.578125 -31.515625 C 31.578125 -29.890625 31.316406 -28.46875 30.796875 -27.25 C 30.285156 -26.039062 29.601562 -25.019531 28.75 -24.1875 C 27.894531 -23.351562 26.898438 -22.675781 25.765625 -22.15625 C 24.628906 -21.644531 23.46875 -21.269531 22.28125 -21.03125 C 23.59375 -20.789062 24.863281 -20.421875 26.09375 -19.921875 C 27.320312 -19.429688 28.429688 -18.769531 29.421875 -17.9375 C 30.421875 -17.101562 31.21875 -16.066406 31.8125 -14.828125 C 32.40625 -13.597656 32.703125 -12.128906 32.703125 -10.421875 C 32.703125 -8.953125 32.429688 -7.570312 31.890625 -6.28125 C 31.359375 -4.988281 30.523438 -3.882812 29.390625 -2.96875 C 28.265625 -2.0625 26.828125 -1.335938 25.078125 -0.796875 C 23.335938 -0.265625 21.234375 0 18.765625 0 L 1.484375 0 Z M 17.875 -21.5625 C 20.769531 -21.5625 22.882812 -22.394531 24.21875 -24.0625 C 25.550781 -25.738281 26.21875 -28.082031 26.21875 -31.09375 C 26.21875 -34.195312 25.53125 -36.503906 24.15625 -38.015625 C 22.789062 -39.523438 20.617188 -40.28125 17.640625 -40.28125 L 10.125 -40.28125 L 10.125 -21.5625 Z M 10.125 -20.140625 L 10.125 -1.4375 L 18.171875 -1.4375 C 21.390625 -1.4375 23.722656 -2.171875 25.171875 -3.640625 C 26.617188 -5.109375 27.34375 -7.53125 27.34375 -10.90625 C 27.34375 -14.238281 26.617188 -16.609375 25.171875 -18.015625 C 23.722656 -19.429688 21.429688 -20.140625 18.296875 -20.140625 Z M 10.125 -20.140625 "/></g></g></g><g fill="#faf9fb" fill-opacity="1"><g transform="translate(320.918548, 193.475817)"><g><path d="M 31.640625 -41.703125 L 31.640625 -32.171875 L 30.203125 -32.171875 L 28.78125 -35.8125 C 28.414062 -36.71875 28.035156 -37.457031 27.640625 -38.03125 C 27.242188 -38.613281 26.757812 -39.0625 26.1875 -39.375 C 25.613281 -39.695312 24.925781 -39.925781 24.125 -40.0625 C 23.332031 -40.207031 22.359375 -40.28125 21.203125 -40.28125 L 10.125 -40.28125 L 10.125 -21.5625 L 26.28125 -21.5625 L 27.40625 -26.328125 L 28.484375 -26.328125 L 28.484375 -15.375 L 27.40625 -15.375 L 26.28125 -20.140625 L 10.125 -20.140625 L 10.125 -1.4375 L 19.953125 -1.4375 C 21.109375 -1.4375 22.125 -1.492188 23 -1.609375 C 23.875 -1.722656 24.664062 -1.9375 25.375 -2.25 C 26.09375 -2.570312 26.738281 -3.03125 27.3125 -3.625 C 27.894531 -4.226562 28.441406 -5.023438 28.953125 -6.015625 L 31.21875 -10.125 L 32.65625 -10.125 L 31.046875 0 L 1.484375 0 L 1.484375 -1.078125 L 5.0625 -1.84375 L 5.0625 -39.859375 L 1.484375 -40.625 L 1.484375 -41.703125 Z M 31.640625 -41.703125 "/></g></g></g></svg>